<?xml version="1.0" encoding="UTF-8"?>
<svg version="1.1" viewBox="0 0 2048 1298" width="563" height="357" xmlns="http://www.w3.org/2000/svg">
<path transform="translate(1018,497)" d="m0 0h11l10 4 6 5 9 14 21 42 10 19 47 94 12 23 11 22 10 19 12 23 2 5-4-4-11-15-11-14-15-16-10-9-18-13-19-11-19-8-21-5-14-2h-23l-24 4-15 4-15 6-17 9-19 13-15 13-11 11-9 11-13 18-5 7-1-3 18-34 25-50 10-19 61-122 8-15 6-11 7-9 10-5z" fill="#1C1B1C"/>
<path transform="translate(1020,741)" d="m0 0h8l10 3 10 9 5 10 1 3v11l-5 12-7 7-8 4-4 1h-13l-9-4-8-7-5-10-1-4v-9l4-11 7-8 5-4z" fill="#1C1B1C"/>
<path transform="translate(869,766)" d="m0 0" fill="#1C1B1C"/>
<path transform="translate(867,769)" d="m0 0" fill="#FEFEFE"/>
<path transform="translate(868,768)" d="m0 0" fill="#1C1B1C"/>
<path transform="translate(1179,767)" d="m0 0" fill="#FEFEFE"/>
</svg>
